{
    "asset" : {
        "generator" : "Khronos glTF Blender I/O v1.3.48",
        "version" : "2.0"
    },
    "scene" : 0,
    "scenes" : [
        {
            "name" : "Scene",
            "nodes" : [
                0,
                1,
                2,
                3,
                4,
                5,
                6,
                7
            ]
        }
    ],
    "nodes" : [
        {
            "name" : "Camera",
            "rotation" : [
                0.483536034822464,
                0.33687159419059753,
                -0.20870360732078552,
                0.7804827094078064
            ],
            "translation" : [
                7.35889196395874,
                4.958309173583984,
                6.925790786743164
            ]
        },
        {
            "mesh" : 0,
            "name" : "C\u00edrculo"
        },
        {
            "mesh" : 1,
            "name" : "Cubo",
            "scale" : [
                0.04153929278254509,
                1.1075621843338013,
                0.04153929278254509
            ],
            "translation" : [
                0.01027590036392212,
                1.5608868598937988,
                0.027057170867919922
            ]
        },
        {
            "mesh" : 2,
            "name" : "cafe",
            "scale" : [
                0.03326002135872841,
                0.03326002135872841,
                0.03326002135872841
            ],
            "translation" : [
                -1.2649204730987549,
                1.3444920778274536,
                0.6625226736068726
            ]
        },
        {
            "mesh" : 3,
            "name" : "Plano.003",
            "rotation" : [
                0.4656955897808075,
                -0.13621753454208374,
                -0.8646937012672424,
                0.12991321086883545
            ],
            "scale" : [
                -1.0873937606811523,
                -0.14882811903953552,
                -1.0873935222625732
            ],
            "translation" : [
                0.12410210072994232,
                0.08684460073709488,
                0.366258829832077
            ]
        },
        {
            "mesh" : 4,
            "name" : "Plano.005",
            "rotation" : [
                -0.7338004112243652,
                0.09495044499635696,
                -0.652766764163971,
                0.16253334283828735
            ],
            "scale" : [
                -1.0873937606811523,
                -0.14882811903953552,
                -1.0873935222625732
            ],
            "translation" : [
                0.15232540667057037,
                0.09023423492908478,
                -0.43591007590293884
            ]
        },
        {
            "mesh" : 5,
            "name" : "Plano.006",
            "rotation" : [
                0.4656955897808075,
                -0.13621753454208374,
                -0.8646937012672424,
                0.12991321086883545
            ],
            "scale" : [
                -1.0873937606811523,
                -0.14882811903953552,
                -1.0873935222625732
            ],
            "translation" : [
                0.12410210072994232,
                0.08684460073709488,
                0.366258829832077
            ]
        },
        {
            "mesh" : 6,
            "name" : "Plano.007",
            "rotation" : [
                0.4656955897808075,
                -0.13621753454208374,
                -0.8646937012672424,
                0.12991321086883545
            ],
            "scale" : [
                -1.0873937606811523,
                -0.14882811903953552,
                -1.0873935222625732
            ],
            "translation" : [
                0.12410210072994232,
                0.08684460073709488,
                0.366258829832077
            ]
        }
    ],
    "materials" : [
        {
            "doubleSided" : true,
            "emissiveFactor" : [
                0,
                0,
                0
            ],
            "name" : "Material.001",
            "pbrMetallicRoughness" : {
                "metallicFactor" : 0,
                "roughnessFactor" : 0
            }
        },
        {
            "doubleSided" : true,
            "emissiveFactor" : [
                0,
                0,
                0
            ],
            "name" : "Material",
            "pbrMetallicRoughness" : {
                "metallicFactor" : 0,
                "roughnessFactor" : 0
            }
        },
        {
            "doubleSided" : true,
            "emissiveFactor" : [
                0,
                0,
                0
            ],
            "name" : "Material.011",
            "pbrMetallicRoughness" : {
                "baseColorFactor" : [
                    0.2667617201805115,
                    0.009788394905626774,
                    0.012764029204845428,
                    1
                ],
                "metallicFactor" : 0,
                "roughnessFactor" : 0.5
            }
        },
        {
            "doubleSided" : true,
            "emissiveFactor" : [
                0,
                0,
                0
            ],
            "name" : "Material.007",
            "pbrMetallicRoughness" : {
                "baseColorTexture" : {
                    "index" : 0,
                    "texCoord" : 0
                },
                "metallicFactor" : 0,
                "roughnessFactor" : 0.5
            }
        },
        {
            "doubleSided" : true,
            "emissiveFactor" : [
                0,
                0,
                0
            ],
            "name" : "Material.015",
            "pbrMetallicRoughness" : {
                "baseColorTexture" : {
                    "index" : 1,
                    "texCoord" : 0
                },
                "metallicFactor" : 0,
                "roughnessFactor" : 0.5
            }
        },
        {
            "doubleSided" : true,
            "emissiveFactor" : [
                0,
                0,
                0
            ],
            "name" : "Material.016",
            "pbrMetallicRoughness" : {
                "baseColorTexture" : {
                    "index" : 2,
                    "texCoord" : 0
                },
                "metallicFactor" : 0,
                "roughnessFactor" : 0.5
            }
        },
        {
            "doubleSided" : true,
            "emissiveFactor" : [
                0,
                0,
                0
            ],
            "name" : "Material.017",
            "pbrMetallicRoughness" : {
                "baseColorTexture" : {
                    "index" : 3,
                    "texCoord" : 0
                },
                "metallicFactor" : 0,
                "roughnessFactor" : 0.5
            }
        }
    ],
    "meshes" : [
        {
            "name" : "C\u00edrculo",
            "primitives" : [
                {
                    "attributes" : {
                        "POSITION" : 0,
                        "NORMAL" : 1,
                        "TEXCOORD_0" : 2
                    },
                    "indices" : 3,
                    "material" : 0
                }
            ]
        },
        {
            "name" : "Cubo.001",
            "primitives" : [
                {
                    "attributes" : {
                        "POSITION" : 4,
                        "NORMAL" : 5,
                        "TEXCOORD_0" : 6
                    },
                    "indices" : 7,
                    "material" : 1
                }
            ]
        },
        {
            "name" : "Esfera",
            "primitives" : [
                {
                    "attributes" : {
                        "POSITION" : 8,
                        "NORMAL" : 9,
                        "TEXCOORD_0" : 10
                    },
                    "indices" : 11,
                    "material" : 2
                }
            ]
        },
        {
            "name" : "Plano.006",
            "primitives" : [
                {
                    "attributes" : {
                        "POSITION" : 12,
                        "NORMAL" : 13,
                        "TEXCOORD_0" : 14
                    },
                    "indices" : 15,
                    "material" : 3
                }
            ]
        },
        {
            "name" : "Plano.013",
            "primitives" : [
                {
                    "attributes" : {
                        "POSITION" : 16,
                        "NORMAL" : 17,
                        "TEXCOORD_0" : 18
                    },
                    "indices" : 15,
                    "material" : 4
                }
            ]
        },
        {
            "name" : "Plano.014",
            "primitives" : [
                {
                    "attributes" : {
                        "POSITION" : 19,
                        "NORMAL" : 20,
                        "TEXCOORD_0" : 21
                    },
                    "indices" : 15,
                    "material" : 5
                }
            ]
        },
        {
            "name" : "Plano.015",
            "primitives" : [
                {
                    "attributes" : {
                        "POSITION" : 22,
                        "NORMAL" : 23,
                        "TEXCOORD_0" : 24
                    },
                    "indices" : 15,
                    "material" : 6
                }
            ]
        }
    ],
    "textures" : [
        {
            "source" : 0
        },
        {
            "source" : 0
        },
        {
            "source" : 0
        },
        {
            "source" : 0
        }
    ],
    "images" : [
        {
            "mimeType" : "image/png",
            "name" : "TexturesCom_Leaves_Ficus01_512_albedo.tif",
            "uri" : "textures/TexturesCom_Leaves_Ficus01_512_albedo_tif.png"
        }
    ],
    "accessors" : [
        {
            "bufferView" : 0,
            "componentType" : 5126,
            "count" : 9949,
            "max" : [
                0.9701798558235168,
                0.5128846764564514,
                0.9701798558235168
            ],
            "min" : [
                -0.9701798558235168,
                0.0001784784981282428,
                -0.9701798558235168
            ],
            "type" : "VEC3"
        },
        {
            "bufferView" : 1,
            "componentType" : 5126,
            "count" : 9949,
            "type" : "VEC3"
        },
        {
            "bufferView" : 2,
            "componentType" : 5126,
            "count" : 9949,
            "type" : "VEC2"
        },
        {
            "bufferView" : 3,
            "componentType" : 5123,
            "count" : 14982,
            "type" : "SCALAR"
        },
        {
            "bufferView" : 4,
            "componentType" : 5126,
            "count" : 9344,
            "max" : [
                11.215231895446777,
                0.8339571952819824,
                9.43814468383789
            ],
            "min" : [
                -6.853763103485107,
                -0.991725504398346,
                -12.94985294342041
            ],
            "type" : "VEC3"
        },
        {
            "bufferView" : 5,
            "componentType" : 5126,
            "count" : 9344,
            "type" : "VEC3"
        },
        {
            "bufferView" : 6,
            "componentType" : 5126,
            "count" : 9344,
            "type" : "VEC2"
        },
        {
            "bufferView" : 7,
            "componentType" : 5123,
            "count" : 14016,
            "type" : "SCALAR"
        },
        {
            "bufferView" : 8,
            "componentType" : 5126,
            "count" : 1984,
            "max" : [
                1.000000238418579,
                1,
                1.0000003576278687
            ],
            "min" : [
                -0.9999998211860657,
                -1,
                -1
            ],
            "type" : "VEC3"
        },
        {
            "bufferView" : 9,
            "componentType" : 5126,
            "count" : 1984,
            "type" : "VEC3"
        },
        {
            "bufferView" : 10,
            "componentType" : 5126,
            "count" : 1984,
            "type" : "VEC2"
        },
        {
            "bufferView" : 11,
            "componentType" : 5123,
            "count" : 2880,
            "type" : "SCALAR"
        },
        {
            "bufferView" : 12,
            "componentType" : 5126,
            "count" : 877,
            "max" : [
                0.40757036209106445,
                0.9872305393218994,
                0.21060428023338318
            ],
            "min" : [
                -0.411157488822937,
                0.023274898529052734,
                -0.20034214854240417
            ],
            "type" : "VEC3"
        },
        {
            "bufferView" : 13,
            "componentType" : 5126,
            "count" : 877,
            "type" : "VEC3"
        },
        {
            "bufferView" : 14,
            "componentType" : 5126,
            "count" : 877,
            "type" : "VEC2"
        },
        {
            "bufferView" : 15,
            "componentType" : 5123,
            "count" : 2970,
            "type" : "SCALAR"
        },
        {
            "bufferView" : 16,
            "componentType" : 5126,
            "count" : 877,
            "max" : [
                0.40757036209106445,
                0.9872305393218994,
                0.21060428023338318
            ],
            "min" : [
                -0.411157488822937,
                0.023274898529052734,
                -0.20034214854240417
            ],
            "type" : "VEC3"
        },
        {
            "bufferView" : 17,
            "componentType" : 5126,
            "count" : 877,
            "type" : "VEC3"
        },
        {
            "bufferView" : 18,
            "componentType" : 5126,
            "count" : 877,
            "type" : "VEC2"
        },
        {
            "bufferView" : 19,
            "componentType" : 5126,
            "count" : 877,
            "max" : [
                0.40757036209106445,
                0.9872305393218994,
                0.21060428023338318
            ],
            "min" : [
                -0.411157488822937,
                0.023274898529052734,
                -0.20034214854240417
            ],
            "type" : "VEC3"
        },
        {
            "bufferView" : 20,
            "componentType" : 5126,
            "count" : 877,
            "type" : "VEC3"
        },
        {
            "bufferView" : 21,
            "componentType" : 5126,
            "count" : 877,
            "type" : "VEC2"
        },
        {
            "bufferView" : 22,
            "componentType" : 5126,
            "count" : 877,
            "max" : [
                0.40757036209106445,
                0.9872305393218994,
                0.21060428023338318
            ],
            "min" : [
                -0.411157488822937,
                0.023274898529052734,
                -0.20034214854240417
            ],
            "type" : "VEC3"
        },
        {
            "bufferView" : 23,
            "componentType" : 5126,
            "count" : 877,
            "type" : "VEC3"
        },
        {
            "bufferView" : 24,
            "componentType" : 5126,
            "count" : 877,
            "type" : "VEC2"
        }
    ],
    "bufferViews" : [
        {
            "buffer" : 0,
            "byteLength" : 119388,
            "byteOffset" : 0
        },
        {
            "buffer" : 0,
            "byteLength" : 119388,
            "byteOffset" : 119388
        },
        {
            "buffer" : 0,
            "byteLength" : 79592,
            "byteOffset" : 238776
        },
        {
            "buffer" : 0,
            "byteLength" : 29964,
            "byteOffset" : 318368
        },
        {
            "buffer" : 0,
            "byteLength" : 112128,
            "byteOffset" : 348332
        },
        {
            "buffer" : 0,
            "byteLength" : 112128,
            "byteOffset" : 460460
        },
        {
            "buffer" : 0,
            "byteLength" : 74752,
            "byteOffset" : 572588
        },
        {
            "buffer" : 0,
            "byteLength" : 28032,
            "byteOffset" : 647340
        },
        {
            "buffer" : 0,
            "byteLength" : 23808,
            "byteOffset" : 675372
        },
        {
            "buffer" : 0,
            "byteLength" : 23808,
            "byteOffset" : 699180
        },
        {
            "buffer" : 0,
            "byteLength" : 15872,
            "byteOffset" : 722988
        },
        {
            "buffer" : 0,
            "byteLength" : 5760,
            "byteOffset" : 738860
        },
        {
            "buffer" : 0,
            "byteLength" : 10524,
            "byteOffset" : 744620
        },
        {
            "buffer" : 0,
            "byteLength" : 10524,
            "byteOffset" : 755144
        },
        {
            "buffer" : 0,
            "byteLength" : 7016,
            "byteOffset" : 765668
        },
        {
            "buffer" : 0,
            "byteLength" : 5940,
            "byteOffset" : 772684
        },
        {
            "buffer" : 0,
            "byteLength" : 10524,
            "byteOffset" : 778624
        },
        {
            "buffer" : 0,
            "byteLength" : 10524,
            "byteOffset" : 789148
        },
        {
            "buffer" : 0,
            "byteLength" : 7016,
            "byteOffset" : 799672
        },
        {
            "buffer" : 0,
            "byteLength" : 10524,
            "byteOffset" : 806688
        },
        {
            "buffer" : 0,
            "byteLength" : 10524,
            "byteOffset" : 817212
        },
        {
            "buffer" : 0,
            "byteLength" : 7016,
            "byteOffset" : 827736
        },
        {
            "buffer" : 0,
            "byteLength" : 10524,
            "byteOffset" : 834752
        },
        {
            "buffer" : 0,
            "byteLength" : 10524,
            "byteOffset" : 845276
        },
        {
            "buffer" : 0,
            "byteLength" : 7016,
            "byteOffset" : 855800
        }
    ],
    "buffers" : [
        {
            "byteLength" : 862816,
            "uri" : "planta.bin"
        }
    ]
}
